<?xml version="1.0" encoding="UTF-8"?>
<svg xmlns="http://www.w3.org/2000/svg" version="1.1" width="100" height="100" viewBox="0 0 100 100"><rect x="0" y="0" width="100" height="100" fill="#ffffff"/><g transform="scale(3.03)"><g transform="translate(0,0)"><path fill-rule="evenodd" d="M10 0L10 2L11 2L11 0ZM12 0L12 1L13 1L13 2L12 2L12 4L13 4L13 3L14 3L14 4L15 4L15 5L17 5L17 4L19 4L19 5L18 5L18 7L19 7L19 8L17 8L17 6L16 6L16 8L17 8L17 9L19 9L19 10L18 10L18 12L17 12L17 11L16 11L16 9L12 9L12 7L13 7L13 5L11 5L11 6L10 6L10 4L11 4L11 3L8 3L8 4L9 4L9 5L8 5L8 7L9 7L9 8L6 8L6 9L8 9L8 10L4 10L4 9L5 9L5 8L0 8L0 10L1 10L1 11L0 11L0 13L1 13L1 14L0 14L0 15L1 15L1 14L3 14L3 13L4 13L4 14L5 14L5 16L4 16L4 19L5 19L5 17L7 17L7 18L6 18L6 19L7 19L7 18L10 18L10 16L9 16L9 14L10 14L10 13L11 13L11 12L9 12L9 11L8 11L8 10L9 10L9 9L10 9L10 11L11 11L11 9L12 9L12 10L13 10L13 11L12 11L12 13L13 13L13 12L14 12L14 13L16 13L16 14L15 14L15 15L14 15L14 16L15 16L15 17L12 17L12 15L13 15L13 14L11 14L11 17L12 17L12 18L13 18L13 19L12 19L12 21L13 21L13 20L14 20L14 21L16 21L16 22L15 22L15 23L14 23L14 24L15 24L15 23L16 23L16 24L17 24L17 25L19 25L19 26L18 26L18 28L14 28L14 27L17 27L17 26L15 26L15 25L12 25L12 23L13 23L13 22L11 22L11 23L8 23L8 27L9 27L9 24L11 24L11 25L12 25L12 26L13 26L13 27L12 27L12 29L13 29L13 28L14 28L14 29L19 29L19 30L18 30L18 32L16 32L16 30L15 30L15 31L14 31L14 32L15 32L15 33L19 33L19 32L20 32L20 33L21 33L21 32L23 32L23 33L26 33L26 32L23 32L23 31L25 31L25 30L26 30L26 31L27 31L27 33L30 33L30 32L31 32L31 33L32 33L32 32L31 32L31 31L30 31L30 32L28 32L28 30L29 30L29 29L30 29L30 28L32 28L32 29L31 29L31 30L33 30L33 28L32 28L32 27L31 27L31 26L33 26L33 25L30 25L30 24L32 24L32 23L30 23L30 24L28 24L28 21L29 21L29 22L30 22L30 21L29 21L29 20L28 20L28 17L30 17L30 20L31 20L31 18L33 18L33 17L32 17L32 16L33 16L33 15L30 15L30 16L28 16L28 13L29 13L29 14L30 14L30 13L29 13L29 10L28 10L28 12L27 12L27 11L25 11L25 10L27 10L27 9L28 9L28 8L27 8L27 9L26 9L26 8L24 8L24 7L25 7L25 3L24 3L24 2L23 2L23 4L22 4L22 5L21 5L21 6L20 6L20 7L19 7L19 5L20 5L20 4L21 4L21 3L22 3L22 1L25 1L25 0L21 0L21 2L20 2L20 4L19 4L19 3L17 3L17 4L16 4L16 2L17 2L17 1L16 1L16 0ZM19 0L19 1L20 1L20 0ZM8 1L8 2L9 2L9 1ZM14 2L14 3L15 3L15 2ZM22 5L22 6L21 6L21 7L20 7L20 8L19 8L19 9L20 9L20 10L19 10L19 11L20 11L20 10L23 10L23 12L21 12L21 13L20 13L20 12L19 12L19 13L18 13L18 14L16 14L16 15L17 15L17 16L16 16L16 17L15 17L15 18L16 18L16 20L21 20L21 21L20 21L20 22L19 22L19 21L17 21L17 22L16 22L16 23L17 23L17 24L19 24L19 25L20 25L20 26L19 26L19 29L20 29L20 30L19 30L19 31L20 31L20 32L21 32L21 31L23 31L23 30L21 30L21 29L24 29L24 30L25 30L25 29L24 29L24 28L21 28L21 25L23 25L23 26L22 26L22 27L23 27L23 26L24 26L24 24L26 24L26 23L27 23L27 22L23 22L23 20L21 20L21 19L24 19L24 20L25 20L25 18L26 18L26 17L28 17L28 16L27 16L27 14L26 14L26 15L25 15L25 16L24 16L24 14L25 14L25 13L24 13L24 12L25 12L25 11L24 11L24 10L25 10L25 9L24 9L24 8L23 8L23 7L24 7L24 5ZM9 6L9 7L10 7L10 6ZM11 6L11 7L12 7L12 6ZM14 6L14 8L15 8L15 6ZM22 6L22 7L21 7L21 8L20 8L20 9L21 9L21 8L22 8L22 7L23 7L23 6ZM10 8L10 9L11 9L11 8ZM29 8L29 9L30 9L30 12L31 12L31 13L32 13L32 14L33 14L33 11L32 11L32 12L31 12L31 10L33 10L33 9L32 9L32 8L31 8L31 9L30 9L30 8ZM1 9L1 10L2 10L2 11L1 11L1 12L2 12L2 11L3 11L3 12L4 12L4 13L5 13L5 14L7 14L7 15L6 15L6 16L7 16L7 15L8 15L8 14L9 14L9 13L8 13L8 11L3 11L3 9ZM23 9L23 10L24 10L24 9ZM14 11L14 12L16 12L16 13L17 13L17 12L16 12L16 11ZM6 12L6 13L7 13L7 12ZM26 12L26 13L27 13L27 12ZM19 13L19 14L18 14L18 16L17 16L17 17L16 17L16 18L18 18L18 19L19 19L19 18L20 18L20 17L21 17L21 18L24 18L24 17L21 17L21 16L22 16L22 15L21 15L21 16L20 16L20 17L19 17L19 14L20 14L20 13ZM21 13L21 14L24 14L24 13ZM2 15L2 16L3 16L3 15ZM8 16L8 17L9 17L9 16ZM25 16L25 17L26 17L26 16ZM30 16L30 17L31 17L31 16ZM1 17L1 18L2 18L2 17ZM18 17L18 18L19 18L19 17ZM1 19L1 20L0 20L0 25L1 25L1 22L2 22L2 21L3 21L3 23L2 23L2 25L3 25L3 24L5 24L5 23L7 23L7 22L8 22L8 21L7 21L7 20L3 20L3 19ZM8 19L8 20L10 20L10 21L9 21L9 22L10 22L10 21L11 21L11 20L10 20L10 19ZM14 19L14 20L15 20L15 19ZM32 19L32 20L33 20L33 19ZM26 20L26 21L28 21L28 20ZM5 21L5 22L4 22L4 23L5 23L5 22L7 22L7 21ZM31 21L31 22L33 22L33 21ZM18 22L18 23L19 23L19 22ZM20 22L20 23L21 23L21 24L20 24L20 25L21 25L21 24L23 24L23 22ZM6 24L6 25L7 25L7 24ZM25 25L25 28L28 28L28 25ZM29 25L29 26L30 26L30 25ZM26 26L26 27L27 27L27 26ZM10 27L10 28L11 28L11 27ZM29 27L29 28L30 28L30 27ZM8 28L8 33L9 33L9 30L10 30L10 29L9 29L9 28ZM20 28L20 29L21 29L21 28ZM26 29L26 30L28 30L28 29ZM11 30L11 32L10 32L10 33L12 33L12 31L13 31L13 30ZM20 30L20 31L21 31L21 30ZM0 0L0 7L7 7L7 0ZM1 1L1 6L6 6L6 1ZM2 2L2 5L5 5L5 2ZM26 0L26 7L33 7L33 0ZM27 1L27 6L32 6L32 1ZM28 2L28 5L31 5L31 2ZM0 26L0 33L7 33L7 26ZM1 27L1 32L6 32L6 27ZM2 28L2 31L5 31L5 28Z" fill="#000000"/></g></g></svg>
