<?xml version="1.0" encoding="UTF-8"?>
<svg xmlns="http://www.w3.org/2000/svg" version="1.1" width="100" height="100" viewBox="0 0 100 100"><rect x="0" y="0" width="100" height="100" fill="#ffffff"/><g transform="scale(3.448)"><g transform="translate(0,0)"><path fill-rule="evenodd" d="M9 0L9 1L11 1L11 2L9 2L9 3L8 3L8 5L9 5L9 6L8 6L8 7L9 7L9 9L8 9L8 8L5 8L5 9L4 9L4 10L3 10L3 9L2 9L2 8L0 8L0 12L1 12L1 13L2 13L2 14L0 14L0 15L1 15L1 16L2 16L2 17L0 17L0 21L1 21L1 19L3 19L3 21L8 21L8 24L9 24L9 20L8 20L8 19L10 19L10 21L11 21L11 22L13 22L13 21L14 21L14 20L15 20L15 23L16 23L16 22L17 22L17 21L20 21L20 22L18 22L18 25L21 25L21 26L22 26L22 29L23 29L23 28L24 28L24 29L27 29L27 27L28 27L28 28L29 28L29 27L28 27L28 26L29 26L29 24L28 24L28 19L29 19L29 17L28 17L28 16L27 16L27 15L28 15L28 14L29 14L29 11L28 11L28 10L26 10L26 8L24 8L24 12L25 12L25 10L26 10L26 11L27 11L27 12L28 12L28 13L27 13L27 15L26 15L26 17L24 17L24 16L23 16L23 15L22 15L22 14L23 14L23 12L19 12L19 11L18 11L18 12L19 12L19 13L18 13L18 14L16 14L16 10L17 10L17 9L18 9L18 10L20 10L20 11L22 11L22 9L21 9L21 10L20 10L20 9L18 9L18 8L21 8L21 0L20 0L20 4L19 4L19 5L18 5L18 8L17 8L17 6L16 6L16 8L15 8L15 12L14 12L14 13L13 13L13 12L11 12L11 11L10 11L10 10L12 10L12 11L13 11L13 10L14 10L14 8L12 8L12 7L13 7L13 4L14 4L14 5L15 5L15 3L17 3L17 4L18 4L18 3L17 3L17 2L18 2L18 1L19 1L19 0L18 0L18 1L17 1L17 0L16 0L16 2L14 2L14 3L12 3L12 2L13 2L13 1L14 1L14 0L13 0L13 1L12 1L12 0ZM9 3L9 5L10 5L10 3ZM11 4L11 7L10 7L10 6L9 6L9 7L10 7L10 8L11 8L11 9L12 9L12 10L13 10L13 9L12 9L12 8L11 8L11 7L12 7L12 4ZM19 5L19 7L20 7L20 5ZM14 6L14 7L15 7L15 6ZM6 9L6 10L8 10L8 9ZM9 9L9 10L10 10L10 9ZM1 10L1 11L3 11L3 10ZM4 10L4 11L5 11L5 13L6 13L6 14L4 14L4 15L3 15L3 14L2 14L2 16L3 16L3 19L4 19L4 20L7 20L7 19L8 19L8 18L7 18L7 17L6 17L6 16L8 16L8 17L9 17L9 18L10 18L10 17L9 17L9 16L11 16L11 17L12 17L12 18L14 18L14 17L15 17L15 14L13 14L13 13L12 13L12 14L11 14L11 15L10 15L10 13L9 13L9 14L8 14L8 15L6 15L6 14L7 14L7 13L8 13L8 12L10 12L10 11L5 11L5 10ZM3 12L3 13L4 13L4 12ZM6 12L6 13L7 13L7 12ZM24 13L24 15L25 15L25 13ZM12 14L12 16L13 16L13 17L14 17L14 16L13 16L13 14ZM18 14L18 15L16 15L16 16L18 16L18 15L21 15L21 16L22 16L22 17L21 17L21 18L20 18L20 19L23 19L23 20L27 20L27 18L26 18L26 19L25 19L25 18L24 18L24 17L23 17L23 16L22 16L22 15L21 15L21 14ZM8 15L8 16L9 16L9 15ZM19 16L19 17L20 17L20 16ZM4 17L4 18L5 18L5 19L7 19L7 18L6 18L6 17ZM16 17L16 18L17 18L17 19L15 19L15 20L19 20L19 18L17 18L17 17ZM22 17L22 18L23 18L23 19L24 19L24 18L23 18L23 17ZM12 19L12 20L14 20L14 19ZM21 21L21 24L24 24L24 21ZM25 21L25 24L26 24L26 25L27 25L27 22L26 22L26 21ZM22 22L22 23L23 23L23 22ZM11 23L11 24L10 24L10 26L9 26L9 27L8 27L8 29L9 29L9 27L11 27L11 26L12 26L12 28L13 28L13 29L14 29L14 28L15 28L15 29L20 29L20 26L16 26L16 25L15 25L15 24L14 24L14 26L15 26L15 27L14 27L14 28L13 28L13 25L12 25L12 24L13 24L13 23ZM22 25L22 26L23 26L23 27L24 27L24 26L25 26L25 28L26 28L26 26L25 26L25 25L24 25L24 26L23 26L23 25ZM15 27L15 28L16 28L16 27ZM17 27L17 28L18 28L18 27ZM0 0L0 7L7 7L7 0ZM1 1L1 6L6 6L6 1ZM2 2L2 5L5 5L5 2ZM22 0L22 7L29 7L29 0ZM23 1L23 6L28 6L28 1ZM24 2L24 5L27 5L27 2ZM0 22L0 29L7 29L7 22ZM1 23L1 28L6 28L6 23ZM2 24L2 27L5 27L5 24Z" fill="#000000"/></g></g></svg>
