<?xml version="1.0" encoding="UTF-8"?>
<svg xmlns="http://www.w3.org/2000/svg" version="1.1" width="100" height="100" viewBox="0 0 100 100"><rect x="0" y="0" width="100" height="100" fill="#ffffff"/><g transform="scale(3.448)"><g transform="translate(0,0)"><path fill-rule="evenodd" d="M8 0L8 1L9 1L9 2L10 2L10 3L11 3L11 1L13 1L13 2L12 2L12 4L11 4L11 5L10 5L10 4L9 4L9 5L10 5L10 8L9 8L9 6L8 6L8 8L9 8L9 9L7 9L7 8L6 8L6 9L7 9L7 10L6 10L6 11L7 11L7 10L10 10L10 11L8 11L8 12L5 12L5 13L4 13L4 12L2 12L2 10L3 10L3 9L4 9L4 10L5 10L5 8L3 8L3 9L2 9L2 8L0 8L0 12L1 12L1 13L0 13L0 15L1 15L1 17L0 17L0 21L3 21L3 20L4 20L4 21L5 21L5 20L6 20L6 21L8 21L8 22L9 22L9 23L10 23L10 24L8 24L8 26L9 26L9 25L10 25L10 27L8 27L8 29L9 29L9 28L10 28L10 27L11 27L11 23L10 23L10 22L11 22L11 19L12 19L12 21L13 21L13 20L14 20L14 22L12 22L12 23L14 23L14 22L15 22L15 23L16 23L16 24L13 24L13 25L12 25L12 26L13 26L13 25L14 25L14 27L12 27L12 28L11 28L11 29L13 29L13 28L15 28L15 29L17 29L17 27L16 27L16 24L18 24L18 25L26 25L26 24L25 24L25 23L26 23L26 22L27 22L27 23L28 23L28 22L27 22L27 20L29 20L29 18L28 18L28 16L29 16L29 11L27 11L27 12L28 12L28 13L27 13L27 14L28 14L28 16L27 16L27 15L26 15L26 14L25 14L25 13L26 13L26 11L25 11L25 13L24 13L24 12L23 12L23 11L22 11L22 9L23 9L23 8L22 8L22 9L21 9L21 6L20 6L20 8L19 8L19 5L21 5L21 4L19 4L19 3L20 3L20 2L21 2L21 0L20 0L20 1L18 1L18 0L16 0L16 1L18 1L18 2L19 2L19 3L17 3L17 2L15 2L15 1L14 1L14 0L11 0L11 1L9 1L9 0ZM14 2L14 3L15 3L15 4L12 4L12 5L11 5L11 7L12 7L12 9L10 9L10 10L12 10L12 11L13 11L13 13L11 13L11 12L10 12L10 16L9 16L9 18L8 18L8 15L6 15L6 14L9 14L9 12L8 12L8 13L6 13L6 14L5 14L5 15L6 15L6 16L4 16L4 13L3 13L3 14L2 14L2 13L1 13L1 15L2 15L2 17L3 17L3 16L4 16L4 18L7 18L7 19L6 19L6 20L9 20L9 22L10 22L10 19L9 19L9 18L10 18L10 16L11 16L11 17L13 17L13 18L12 18L12 19L13 19L13 18L14 18L14 19L15 19L15 21L17 21L17 22L16 22L16 23L17 23L17 22L18 22L18 23L19 23L19 24L20 24L20 23L19 23L19 22L20 22L20 20L21 20L21 19L23 19L23 18L24 18L24 17L25 17L25 20L26 20L26 17L27 17L27 16L24 16L24 17L23 17L23 16L22 16L22 15L25 15L25 14L24 14L24 13L23 13L23 14L22 14L22 15L21 15L21 14L20 14L20 13L21 13L21 12L22 12L22 11L21 11L21 12L20 12L20 13L18 13L18 12L16 12L16 11L15 11L15 10L14 10L14 11L13 11L13 10L12 10L12 9L15 9L15 8L16 8L16 9L17 9L17 10L19 10L19 11L20 11L20 10L19 10L19 9L17 9L17 8L18 8L18 6L17 6L17 7L16 7L16 5L19 5L19 4L17 4L17 3L15 3L15 2ZM12 5L12 7L13 7L13 8L14 8L14 7L15 7L15 6L14 6L14 5ZM13 6L13 7L14 7L14 6ZM28 8L28 9L29 9L29 8ZM24 9L24 10L25 10L25 9ZM26 9L26 10L27 10L27 9ZM15 12L15 15L14 15L14 13L13 13L13 14L11 14L11 16L12 16L12 15L14 15L14 16L13 16L13 17L14 17L14 16L15 16L15 15L16 15L16 17L15 17L15 19L17 19L17 18L18 18L18 20L17 20L17 21L19 21L19 19L20 19L20 17L19 17L19 16L18 16L18 17L17 17L17 15L18 15L18 14L17 14L17 15L16 15L16 12ZM19 14L19 15L20 15L20 16L21 16L21 17L22 17L22 16L21 16L21 15L20 15L20 14ZM6 16L6 17L7 17L7 16ZM18 17L18 18L19 18L19 17ZM27 18L27 19L28 19L28 18ZM2 19L2 20L3 20L3 19ZM4 19L4 20L5 20L5 19ZM21 21L21 24L24 24L24 21ZM25 21L25 22L26 22L26 21ZM22 22L22 23L23 23L23 22ZM27 24L27 25L28 25L28 26L26 26L26 27L25 27L25 26L23 26L23 27L22 27L22 28L20 28L20 26L19 26L19 28L18 28L18 29L19 29L19 28L20 28L20 29L26 29L26 28L27 28L27 27L28 27L28 28L29 28L29 25L28 25L28 24ZM15 27L15 28L16 28L16 27ZM23 27L23 28L24 28L24 27ZM0 0L0 7L7 7L7 0ZM1 1L1 6L6 6L6 1ZM2 2L2 5L5 5L5 2ZM22 0L22 7L29 7L29 0ZM23 1L23 6L28 6L28 1ZM24 2L24 5L27 5L27 2ZM0 22L0 29L7 29L7 22ZM1 23L1 28L6 28L6 23ZM2 24L2 27L5 27L5 24Z" fill="#000000"/></g></g></svg>
