<?xml version="1.0" encoding="UTF-8"?>
<svg xmlns="http://www.w3.org/2000/svg" version="1.1" width="100" height="100" viewBox="0 0 100 100"><rect x="0" y="0" width="100" height="100" fill="#ffffff"/><g transform="scale(3.448)"><g transform="translate(0,0)"><path fill-rule="evenodd" d="M11 0L11 1L9 1L9 2L11 2L11 1L14 1L14 0ZM16 0L16 1L18 1L18 2L19 2L19 1L18 1L18 0ZM20 0L20 1L21 1L21 0ZM12 2L12 4L14 4L14 5L11 5L11 6L10 6L10 8L9 8L9 10L10 10L10 11L9 11L9 12L8 12L8 13L9 13L9 15L10 15L10 17L8 17L8 16L6 16L6 15L8 15L8 14L5 14L5 13L7 13L7 12L5 12L5 11L3 11L3 10L2 10L2 8L0 8L0 13L2 13L2 14L1 14L1 15L0 15L0 16L1 16L1 15L2 15L2 17L3 17L3 20L2 20L2 21L8 21L8 24L9 24L9 25L10 25L10 27L11 27L11 24L12 24L12 23L16 23L16 22L17 22L17 21L20 21L20 22L19 22L19 23L18 23L18 25L19 25L19 26L21 26L21 25L25 25L25 26L22 26L22 28L21 28L21 29L23 29L23 27L24 27L24 29L27 29L27 27L28 27L28 28L29 28L29 27L28 27L28 26L29 26L29 25L28 25L28 24L29 24L29 23L28 23L28 22L27 22L27 20L28 20L28 21L29 21L29 17L28 17L28 16L29 16L29 15L28 15L28 16L27 16L27 15L23 15L23 13L24 13L24 14L29 14L29 12L28 12L28 11L27 11L27 9L26 9L26 8L24 8L24 10L23 10L23 12L21 12L21 11L22 11L22 9L21 9L21 8L20 8L20 7L21 7L21 6L20 6L20 7L19 7L19 5L20 5L20 4L19 4L19 3L17 3L17 5L18 5L18 8L15 8L15 6L14 6L14 5L15 5L15 3L16 3L16 2L15 2L15 3L13 3L13 2ZM20 2L20 3L21 3L21 2ZM8 3L8 5L10 5L10 4L9 4L9 3ZM18 4L18 5L19 5L19 4ZM8 6L8 7L9 7L9 6ZM11 6L11 7L12 7L12 9L11 9L11 8L10 8L10 10L11 10L11 11L10 11L10 14L13 14L13 15L12 15L12 17L11 17L11 18L12 18L12 19L10 19L10 18L7 18L7 17L6 17L6 16L4 16L4 13L5 13L5 12L4 12L4 13L3 13L3 12L2 12L2 10L1 10L1 12L2 12L2 13L3 13L3 14L2 14L2 15L3 15L3 17L4 17L4 19L5 19L5 18L7 18L7 19L6 19L6 20L7 20L7 19L8 19L8 20L9 20L9 21L11 21L11 22L14 22L14 21L12 21L12 19L13 19L13 20L15 20L15 21L16 21L16 20L18 20L18 18L19 18L19 17L20 17L20 19L19 19L19 20L20 20L20 19L22 19L22 20L23 20L23 18L22 18L22 17L25 17L25 19L26 19L26 20L25 20L25 22L26 22L26 20L27 20L27 19L28 19L28 18L27 18L27 19L26 19L26 16L22 16L22 15L21 15L21 12L20 12L20 14L19 14L19 13L18 13L18 10L19 10L19 11L21 11L21 10L19 10L19 9L20 9L20 8L19 8L19 9L17 9L17 11L13 11L13 10L12 10L12 9L13 9L13 8L14 8L14 9L15 9L15 8L14 8L14 6L13 6L13 7L12 7L12 6ZM16 6L16 7L17 7L17 6ZM5 8L5 9L4 9L4 10L5 10L5 9L7 9L7 10L6 10L6 11L8 11L8 8ZM25 9L25 10L24 10L24 13L25 13L25 11L26 11L26 13L28 13L28 12L27 12L27 11L26 11L26 9ZM12 11L12 12L11 12L11 13L13 13L13 11ZM15 12L15 13L14 13L14 14L15 14L15 15L14 15L14 16L13 16L13 17L12 17L12 18L13 18L13 19L14 19L14 18L13 18L13 17L15 17L15 19L17 19L17 18L16 18L16 17L19 17L19 16L17 16L17 15L18 15L18 14L16 14L16 12ZM15 15L15 17L16 17L16 15ZM20 15L20 17L22 17L22 16L21 16L21 15ZM0 17L0 21L1 21L1 19L2 19L2 18L1 18L1 17ZM21 21L21 24L24 24L24 21ZM9 22L9 23L10 23L10 22ZM22 22L22 23L23 23L23 22ZM19 23L19 24L20 24L20 23ZM25 23L25 24L26 24L26 25L27 25L27 26L28 26L28 25L27 25L27 24L28 24L28 23ZM13 24L13 25L12 25L12 26L13 26L13 27L12 27L12 29L13 29L13 28L14 28L14 29L19 29L19 28L20 28L20 27L19 27L19 28L17 28L17 26L16 26L16 24ZM14 25L14 26L15 26L15 25ZM8 27L8 29L11 29L11 28L9 28L9 27ZM15 27L15 28L16 28L16 27ZM0 0L0 7L7 7L7 0ZM1 1L1 6L6 6L6 1ZM2 2L2 5L5 5L5 2ZM22 0L22 7L29 7L29 0ZM23 1L23 6L28 6L28 1ZM24 2L24 5L27 5L27 2ZM0 22L0 29L7 29L7 22ZM1 23L1 28L6 28L6 23ZM2 24L2 27L5 27L5 24Z" fill="#000000"/></g></g></svg>
