<?xml version="1.0" encoding="UTF-8"?>
<svg xmlns="http://www.w3.org/2000/svg" version="1.1" width="100" height="100" viewBox="0 0 100 100"><rect x="0" y="0" width="100" height="100" fill="#ffffff"/><g transform="scale(3.03)"><g transform="translate(0,0)"><path fill-rule="evenodd" d="M9 0L9 1L8 1L8 2L9 2L9 3L8 3L8 4L10 4L10 7L11 7L11 4L12 4L12 5L13 5L13 6L12 6L12 9L13 9L13 8L14 8L14 9L15 9L15 10L18 10L18 12L17 12L17 11L16 11L16 12L17 12L17 14L18 14L18 15L19 15L19 16L17 16L17 15L16 15L16 13L12 13L12 11L13 11L13 10L11 10L11 11L10 11L10 9L11 9L11 8L6 8L6 9L8 9L8 10L5 10L5 8L0 8L0 10L1 10L1 11L2 11L2 12L0 12L0 15L1 15L1 18L0 18L0 19L2 19L2 22L4 22L4 23L2 23L2 24L3 24L3 25L5 25L5 24L6 24L6 25L7 25L7 24L6 24L6 23L7 23L7 22L6 22L6 23L5 23L5 22L4 22L4 20L5 20L5 21L8 21L8 23L9 23L9 24L8 24L8 27L9 27L9 26L10 26L10 28L11 28L11 29L12 29L12 30L13 30L13 31L12 31L12 33L13 33L13 32L14 32L14 33L19 33L19 32L20 32L20 33L21 33L21 32L23 32L23 33L26 33L26 32L27 32L27 33L30 33L30 32L31 32L31 33L32 33L32 32L31 32L31 31L30 31L30 32L28 32L28 30L29 30L29 29L30 29L30 28L31 28L31 26L33 26L33 25L30 25L30 24L32 24L32 23L30 23L30 24L28 24L28 21L29 21L29 22L30 22L30 21L29 21L29 20L28 20L28 17L30 17L30 20L31 20L31 18L33 18L33 17L32 17L32 16L33 16L33 15L30 15L30 16L28 16L28 13L29 13L29 14L30 14L30 13L29 13L29 10L28 10L28 12L27 12L27 13L26 13L26 12L24 12L24 11L25 11L25 10L27 10L27 9L28 9L28 8L27 8L27 9L26 9L26 8L24 8L24 7L25 7L25 6L24 6L24 7L23 7L23 5L25 5L25 4L23 4L23 5L21 5L21 6L20 6L20 9L19 9L19 5L20 5L20 4L21 4L21 3L22 3L22 1L24 1L24 3L25 3L25 0L22 0L22 1L20 1L20 0L19 0L19 1L18 1L18 2L19 2L19 1L20 1L20 4L19 4L19 3L17 3L17 2L16 2L16 4L12 4L12 2L13 2L13 1L11 1L11 2L10 2L10 0ZM15 0L15 1L17 1L17 0ZM14 2L14 3L15 3L15 2ZM10 3L10 4L11 4L11 3ZM16 4L16 5L17 5L17 7L16 7L16 6L15 6L15 7L14 7L14 6L13 6L13 7L14 7L14 8L15 8L15 7L16 7L16 9L17 9L17 8L18 8L18 5L19 5L19 4ZM8 5L8 7L9 7L9 5ZM21 6L21 7L22 7L22 6ZM21 8L21 9L20 9L20 10L19 10L19 9L18 9L18 10L19 10L19 11L20 11L20 12L19 12L19 13L18 13L18 14L19 14L19 15L20 15L20 14L21 14L21 15L23 15L23 16L21 16L21 17L20 17L20 16L19 16L19 17L17 17L17 16L16 16L16 15L14 15L14 16L13 16L13 17L12 17L12 15L13 15L13 14L12 14L12 13L11 13L11 12L10 12L10 13L11 13L11 15L10 15L10 16L11 16L11 17L9 17L9 16L8 16L8 15L9 15L9 12L8 12L8 11L9 11L9 10L8 10L8 11L5 11L5 10L4 10L4 9L1 9L1 10L2 10L2 11L5 11L5 12L3 12L3 13L2 13L2 15L3 15L3 16L4 16L4 18L3 18L3 17L2 17L2 19L5 19L5 20L7 20L7 19L5 19L5 17L6 17L6 18L8 18L8 19L10 19L10 20L8 20L8 21L10 21L10 20L11 20L11 18L13 18L13 19L12 19L12 21L11 21L11 22L9 22L9 23L11 23L11 25L10 25L10 26L13 26L13 27L12 27L12 29L15 29L15 30L17 30L17 31L14 31L14 32L18 32L18 30L19 30L19 31L23 31L23 32L26 32L26 30L28 30L28 29L26 29L26 30L25 30L25 29L24 29L24 27L22 27L22 26L21 26L21 25L23 25L23 26L24 26L24 25L23 25L23 23L24 23L24 24L27 24L27 23L25 23L25 22L26 22L26 21L28 21L28 20L26 20L26 19L27 19L27 18L26 18L26 17L28 17L28 16L27 16L27 14L26 14L26 17L24 17L24 16L25 16L25 15L24 15L24 14L25 14L25 13L24 13L24 12L23 12L23 11L24 11L24 10L21 10L21 9L23 9L23 8ZM29 8L29 9L30 9L30 12L31 12L31 13L32 13L32 14L33 14L33 11L32 11L32 12L31 12L31 10L33 10L33 9L32 9L32 8L31 8L31 9L30 9L30 8ZM14 11L14 12L15 12L15 11ZM21 11L21 12L20 12L20 13L19 13L19 14L20 14L20 13L21 13L21 14L24 14L24 13L21 13L21 12L22 12L22 11ZM6 12L6 13L4 13L4 14L3 14L3 15L4 15L4 14L6 14L6 15L8 15L8 14L6 14L6 13L8 13L8 12ZM6 16L6 17L7 17L7 16ZM14 16L14 17L16 17L16 18L15 18L15 19L14 19L14 20L15 20L15 21L12 21L12 22L13 22L13 23L12 23L12 25L13 25L13 24L14 24L14 25L16 25L16 26L15 26L15 27L14 27L14 28L15 28L15 27L16 27L16 28L17 28L17 29L19 29L19 30L20 30L20 29L21 29L21 30L24 30L24 31L25 31L25 30L24 30L24 29L21 29L21 28L22 28L22 27L21 27L21 26L20 26L20 25L21 25L21 24L22 24L22 22L24 22L24 21L21 21L21 20L23 20L23 18L24 18L24 20L25 20L25 21L26 21L26 20L25 20L25 18L24 18L24 17L23 17L23 18L21 18L21 20L20 20L20 21L19 21L19 20L17 20L17 19L16 19L16 18L17 18L17 17L16 17L16 16ZM30 16L30 17L31 17L31 16ZM8 17L8 18L9 18L9 17ZM19 17L19 18L18 18L18 19L19 19L19 18L20 18L20 17ZM32 19L32 20L33 20L33 19ZM0 20L0 25L1 25L1 20ZM16 20L16 21L15 21L15 22L16 22L16 24L18 24L18 22L19 22L19 24L21 24L21 21L20 21L20 22L19 22L19 21L17 21L17 20ZM16 21L16 22L17 22L17 21ZM31 21L31 22L33 22L33 21ZM14 23L14 24L15 24L15 23ZM17 25L17 26L16 26L16 27L17 27L17 28L18 28L18 26L19 26L19 29L20 29L20 28L21 28L21 27L20 27L20 26L19 26L19 25ZM25 25L25 28L28 28L28 25ZM29 25L29 26L30 26L30 25ZM26 26L26 27L27 27L27 26ZM29 27L29 28L30 28L30 27ZM8 28L8 33L10 33L10 32L11 32L11 31L10 31L10 32L9 32L9 30L10 30L10 29L9 29L9 28ZM32 28L32 29L31 29L31 30L33 30L33 28ZM0 0L0 7L7 7L7 0ZM1 1L1 6L6 6L6 1ZM2 2L2 5L5 5L5 2ZM26 0L26 7L33 7L33 0ZM27 1L27 6L32 6L32 1ZM28 2L28 5L31 5L31 2ZM0 26L0 33L7 33L7 26ZM1 27L1 32L6 32L6 27ZM2 28L2 31L5 31L5 28Z" fill="#000000"/></g></g></svg>
