<?xml version="1.0" encoding="UTF-8"?>
<svg xmlns="http://www.w3.org/2000/svg" version="1.1" width="100" height="100" viewBox="0 0 100 100"><rect x="0" y="0" width="100" height="100" fill="#ffffff"/><g transform="scale(3.448)"><g transform="translate(0,0)"><path fill-rule="evenodd" d="M10 0L10 2L11 2L11 0ZM12 0L12 1L13 1L13 0ZM14 0L14 1L15 1L15 4L14 4L14 3L13 3L13 2L12 2L12 4L14 4L14 5L11 5L11 6L10 6L10 4L11 4L11 3L8 3L8 4L9 4L9 5L8 5L8 7L9 7L9 8L6 8L6 9L5 9L5 8L0 8L0 11L1 11L1 12L0 12L0 14L1 14L1 15L0 15L0 16L2 16L2 20L4 20L4 21L5 21L5 20L6 20L6 21L7 21L7 20L6 20L6 19L8 19L8 18L9 18L9 17L10 17L10 19L9 19L9 20L8 20L8 23L9 23L9 22L10 22L10 23L11 23L11 25L12 25L12 26L13 26L13 27L12 27L12 29L13 29L13 28L14 28L14 29L19 29L19 28L21 28L21 29L23 29L23 28L22 28L22 27L24 27L24 29L27 29L27 28L28 28L28 26L29 26L29 23L28 23L28 22L29 22L29 19L28 19L28 21L27 21L27 20L26 20L26 18L27 18L27 17L28 17L28 18L29 18L29 17L28 17L28 15L27 15L27 16L26 16L26 15L23 15L23 13L22 13L22 10L23 10L23 12L24 12L24 10L25 10L25 9L26 9L26 8L25 8L25 9L24 9L24 8L23 8L23 9L22 9L22 8L20 8L20 7L21 7L21 6L20 6L20 7L19 7L19 5L20 5L20 4L21 4L21 3L20 3L20 2L21 2L21 1L20 1L20 0L19 0L19 1L18 1L18 2L19 2L19 3L16 3L16 1L15 1L15 0ZM8 1L8 2L9 2L9 1ZM19 1L19 2L20 2L20 1ZM19 3L19 4L18 4L18 5L17 5L17 4L15 4L15 5L14 5L14 6L13 6L13 7L12 7L12 6L11 6L11 7L12 7L12 9L11 9L11 8L10 8L10 9L6 9L6 10L8 10L8 12L7 12L7 11L5 11L5 10L4 10L4 9L3 9L3 10L1 10L1 11L2 11L2 12L3 12L3 10L4 10L4 11L5 11L5 12L7 12L7 13L6 13L6 14L8 14L8 13L9 13L9 14L13 14L13 15L12 15L12 17L11 17L11 22L16 22L16 24L18 24L18 23L19 23L19 25L15 25L15 23L12 23L12 25L14 25L14 26L17 26L17 27L16 27L16 28L19 28L19 27L22 27L22 26L25 26L25 25L26 25L26 24L27 24L27 23L25 23L25 25L22 25L22 26L19 26L19 25L20 25L20 23L19 23L19 22L20 22L20 21L16 21L16 20L18 20L18 19L17 19L17 18L19 18L19 20L20 20L20 18L21 18L21 20L23 20L23 19L24 19L24 18L23 18L23 19L22 19L22 18L21 18L21 17L20 17L20 16L21 16L21 14L22 14L22 13L20 13L20 12L19 12L19 13L15 13L15 14L14 14L14 13L12 13L12 11L13 11L13 12L15 12L15 11L13 11L13 10L12 10L12 9L13 9L13 8L14 8L14 10L17 10L17 11L16 11L16 12L18 12L18 10L19 10L19 11L21 11L21 10L22 10L22 9L20 9L20 8L19 8L19 9L15 9L15 8L14 8L14 6L15 6L15 7L16 7L16 8L18 8L18 5L19 5L19 4L20 4L20 3ZM15 5L15 6L16 6L16 7L17 7L17 6L16 6L16 5ZM9 6L9 7L10 7L10 6ZM27 8L27 10L26 10L26 11L25 11L25 12L26 12L26 13L24 13L24 14L27 14L27 12L26 12L26 11L27 11L27 10L29 10L29 9L28 9L28 8ZM10 9L10 11L11 11L11 9ZM19 9L19 10L20 10L20 9ZM23 9L23 10L24 10L24 9ZM9 12L9 13L11 13L11 12ZM2 13L2 15L5 15L5 16L7 16L7 17L4 17L4 19L5 19L5 18L7 18L7 17L8 17L8 16L7 16L7 15L5 15L5 13L4 13L4 14L3 14L3 13ZM19 13L19 14L20 14L20 13ZM28 13L28 14L29 14L29 13ZM15 14L15 16L13 16L13 17L12 17L12 18L13 18L13 17L15 17L15 16L16 16L16 17L19 17L19 18L20 18L20 17L19 17L19 16L16 16L16 15L18 15L18 14ZM22 15L22 17L25 17L25 18L26 18L26 16L23 16L23 15ZM0 17L0 21L1 21L1 17ZM14 18L14 19L15 19L15 20L13 20L13 19L12 19L12 21L15 21L15 20L16 20L16 18ZM25 20L25 22L27 22L27 21L26 21L26 20ZM21 21L21 24L24 24L24 21ZM22 22L22 23L23 23L23 22ZM8 24L8 29L9 29L9 27L10 27L10 28L11 28L11 26L10 26L10 25L9 25L9 24ZM14 27L14 28L15 28L15 27ZM26 27L26 28L27 28L27 27ZM0 0L0 7L7 7L7 0ZM1 1L1 6L6 6L6 1ZM2 2L2 5L5 5L5 2ZM22 0L22 7L29 7L29 0ZM23 1L23 6L28 6L28 1ZM24 2L24 5L27 5L27 2ZM0 22L0 29L7 29L7 22ZM1 23L1 28L6 28L6 23ZM2 24L2 27L5 27L5 24Z" fill="#000000"/></g></g></svg>
