<?xml version="1.0" encoding="UTF-8"?>
<svg xmlns="http://www.w3.org/2000/svg" version="1.1" width="100" height="100" viewBox="0 0 100 100"><rect x="0" y="0" width="100" height="100" fill="#ffffff"/><g transform="scale(3.03)"><g transform="translate(0,0)"><path fill-rule="evenodd" d="M8 0L8 1L9 1L9 2L8 2L8 5L9 5L9 4L11 4L11 5L10 5L10 10L9 10L9 8L8 8L8 10L9 10L9 12L5 12L5 11L4 11L4 10L6 10L6 11L7 11L7 10L6 10L6 9L7 9L7 8L6 8L6 9L4 9L4 8L0 8L0 11L1 11L1 12L0 12L0 14L3 14L3 15L0 15L0 18L1 18L1 20L0 20L0 22L2 22L2 23L1 23L1 24L0 24L0 25L1 25L1 24L2 24L2 23L3 23L3 24L4 24L4 25L8 25L8 26L10 26L10 25L11 25L11 26L12 26L12 28L10 28L10 27L9 27L9 28L10 28L10 29L12 29L12 30L9 30L9 29L8 29L8 33L9 33L9 31L10 31L10 32L11 32L11 33L14 33L14 32L13 32L13 30L14 30L14 29L12 29L12 28L14 28L14 27L15 27L15 26L16 26L16 25L15 25L15 26L14 26L14 25L13 25L13 26L12 26L12 24L16 24L16 23L15 23L15 22L14 22L14 23L11 23L11 21L10 21L10 20L12 20L12 19L11 19L11 18L10 18L10 17L11 17L11 16L12 16L12 17L13 17L13 16L12 16L12 14L13 14L13 15L14 15L14 18L13 18L13 21L15 21L15 19L16 19L16 17L15 17L15 16L17 16L17 13L18 13L18 14L19 14L19 15L18 15L18 16L19 16L19 15L20 15L20 14L21 14L21 17L22 17L22 15L23 15L23 13L22 13L22 14L21 14L21 11L20 11L20 13L19 13L19 12L17 12L17 13L16 13L16 11L15 11L15 12L14 12L14 14L13 14L13 12L12 12L12 13L11 13L11 11L14 11L14 10L16 10L16 9L18 9L18 8L19 8L19 10L20 10L20 9L23 9L23 10L22 10L22 11L24 11L24 14L26 14L26 12L27 12L27 13L29 13L29 12L28 12L28 11L30 11L30 10L32 10L32 11L31 11L31 13L30 13L30 17L32 17L32 18L33 18L33 15L32 15L32 14L31 14L31 13L33 13L33 8L32 8L32 9L31 9L31 8L28 8L28 9L30 9L30 10L27 10L27 9L26 9L26 8L25 8L25 6L24 6L24 8L25 8L25 10L26 10L26 12L25 12L25 11L24 11L24 9L23 9L23 8L21 8L21 6L20 6L20 5L22 5L22 7L23 7L23 4L25 4L25 0L21 0L21 1L20 1L20 0L19 0L19 1L16 1L16 0L12 0L12 1L11 1L11 0L10 0L10 1L9 1L9 0ZM14 1L14 2L11 2L11 4L12 4L12 3L13 3L13 5L12 5L12 6L11 6L11 8L12 8L12 6L13 6L13 8L14 8L14 9L15 9L15 7L16 7L16 6L15 6L15 5L16 5L16 4L17 4L17 3L18 3L18 2L17 2L17 3L16 3L16 1ZM19 1L19 2L20 2L20 1ZM21 1L21 4L23 4L23 3L22 3L22 2L23 2L23 1ZM14 3L14 5L13 5L13 6L14 6L14 7L15 7L15 6L14 6L14 5L15 5L15 4L16 4L16 3ZM19 3L19 4L20 4L20 3ZM17 5L17 7L18 7L18 6L19 6L19 7L20 7L20 6L19 6L19 5ZM8 6L8 7L9 7L9 6ZM1 9L1 11L2 11L2 12L1 12L1 13L2 13L2 12L4 12L4 11L2 11L2 9ZM11 9L11 10L12 10L12 9ZM17 10L17 11L18 11L18 10ZM6 13L6 14L7 14L7 15L5 15L5 14L4 14L4 15L5 15L5 16L7 16L7 15L8 15L8 14L9 14L9 17L8 17L8 18L7 18L7 17L6 17L6 18L5 18L5 19L4 19L4 17L3 17L3 16L2 16L2 17L3 17L3 18L2 18L2 19L3 19L3 20L7 20L7 19L8 19L8 18L9 18L9 20L10 20L10 18L9 18L9 17L10 17L10 16L11 16L11 15L10 15L10 14L11 14L11 13L10 13L10 14L9 14L9 13L8 13L8 14L7 14L7 13ZM14 14L14 15L16 15L16 14ZM28 14L28 15L27 15L27 16L25 16L25 15L24 15L24 16L23 16L23 18L25 18L25 19L24 19L24 20L23 20L23 19L22 19L22 20L21 20L21 19L20 19L20 21L19 21L19 22L20 22L20 21L23 21L23 22L22 22L22 23L24 23L24 25L22 25L22 27L21 27L21 24L20 24L20 23L18 23L18 22L17 22L17 21L18 21L18 20L19 20L19 17L17 17L17 18L18 18L18 19L17 19L17 21L16 21L16 22L17 22L17 23L18 23L18 24L17 24L17 26L19 26L19 27L18 27L18 28L19 28L19 27L21 27L21 29L22 29L22 27L23 27L23 30L22 30L22 32L21 32L21 31L20 31L20 32L19 32L19 33L24 33L24 32L25 32L25 29L27 29L27 30L26 30L26 32L27 32L27 31L28 31L28 29L29 29L29 27L30 27L30 30L31 30L31 28L32 28L32 25L31 25L31 27L30 27L30 24L29 24L29 23L31 23L31 22L32 22L32 23L33 23L33 21L32 21L32 20L30 20L30 19L31 19L31 18L30 18L30 19L29 19L29 20L30 20L30 21L29 21L29 23L28 23L28 24L27 24L27 22L28 22L28 20L27 20L27 21L24 21L24 20L26 20L26 19L28 19L28 18L29 18L29 16L28 16L28 15L29 15L29 14ZM27 17L27 18L28 18L28 17ZM6 18L6 19L7 19L7 18ZM1 20L1 21L2 21L2 20ZM3 21L3 22L4 22L4 24L5 24L5 21ZM6 21L6 22L7 22L7 23L6 23L6 24L8 24L8 25L10 25L10 24L9 24L9 22L10 22L10 21L8 21L8 22L7 22L7 21ZM30 21L30 22L31 22L31 21ZM25 22L25 23L26 23L26 22ZM19 24L19 25L20 25L20 24ZM25 25L25 28L28 28L28 25ZM13 26L13 27L14 27L14 26ZM26 26L26 27L27 27L27 26ZM16 28L16 29L15 29L15 31L16 31L16 30L17 30L17 28ZM18 29L18 31L17 31L17 33L18 33L18 31L19 31L19 29ZM32 29L32 30L33 30L33 29ZM11 31L11 32L12 32L12 31ZM29 31L29 33L31 33L31 32L30 32L30 31ZM32 31L32 32L33 32L33 31ZM0 0L0 7L7 7L7 0ZM1 1L1 6L6 6L6 1ZM2 2L2 5L5 5L5 2ZM26 0L26 7L33 7L33 0ZM27 1L27 6L32 6L32 1ZM28 2L28 5L31 5L31 2ZM0 26L0 33L7 33L7 26ZM1 27L1 32L6 32L6 27ZM2 28L2 31L5 31L5 28Z" fill="#000000"/></g></g></svg>
