<?xml version="1.0" encoding="UTF-8"?>
<svg xmlns="http://www.w3.org/2000/svg" version="1.1" width="100" height="100" viewBox="0 0 100 100"><rect x="0" y="0" width="100" height="100" fill="#ffffff"/><g transform="scale(3.448)"><g transform="translate(0,0)"><path fill-rule="evenodd" d="M8 0L8 1L9 1L9 2L8 2L8 5L9 5L9 4L11 4L11 5L10 5L10 10L9 10L9 8L8 8L8 9L7 9L7 8L6 8L6 9L7 9L7 10L6 10L6 11L7 11L7 12L4 12L4 11L5 11L5 9L4 9L4 8L0 8L0 9L4 9L4 10L1 10L1 12L0 12L0 13L1 13L1 14L0 14L0 15L1 15L1 16L0 16L0 17L1 17L1 18L0 18L0 19L1 19L1 18L2 18L2 17L4 17L4 18L3 18L3 19L2 19L2 20L1 20L1 21L3 21L3 20L5 20L5 21L7 21L7 20L8 20L8 22L9 22L9 23L11 23L11 25L10 25L10 24L9 24L9 25L8 25L8 29L10 29L10 28L11 28L11 29L12 29L12 28L14 28L14 27L15 27L15 28L16 28L16 29L17 29L17 28L16 28L16 27L15 27L15 26L16 26L16 25L17 25L17 26L18 26L18 27L19 27L19 28L20 28L20 29L21 29L21 28L22 28L22 29L24 29L24 28L25 28L25 29L26 29L26 27L27 27L27 29L28 29L28 27L29 27L29 24L26 24L26 22L25 22L25 21L27 21L27 22L29 22L29 21L28 21L28 20L29 20L29 19L26 19L26 18L28 18L28 17L25 17L25 16L26 16L26 13L27 13L27 16L28 16L28 15L29 15L29 13L27 13L27 12L29 12L29 11L28 11L28 10L29 10L29 8L28 8L28 9L27 9L27 8L24 8L24 11L22 11L22 12L21 12L21 10L20 10L20 9L22 9L22 10L23 10L23 9L22 9L22 8L21 8L21 3L20 3L20 2L21 2L21 1L20 1L20 0L19 0L19 1L20 1L20 2L18 2L18 1L17 1L17 2L16 2L16 3L15 3L15 5L16 5L16 7L17 7L17 9L18 9L18 7L19 7L19 10L20 10L20 13L19 13L19 12L17 12L17 11L18 11L18 10L16 10L16 12L14 12L14 9L13 9L13 6L12 6L12 5L13 5L13 4L14 4L14 2L15 2L15 0L14 0L14 2L13 2L13 0L12 0L12 1L11 1L11 0L10 0L10 1L9 1L9 0ZM11 2L11 4L12 4L12 3L13 3L13 2ZM17 2L17 3L18 3L18 2ZM19 3L19 4L20 4L20 3ZM16 4L16 5L17 5L17 7L18 7L18 6L19 6L19 7L20 7L20 6L19 6L19 5L18 5L18 4ZM8 6L8 7L9 7L9 6ZM11 6L11 8L12 8L12 6ZM14 6L14 7L15 7L15 6ZM11 9L11 10L12 10L12 9ZM25 9L25 12L22 12L22 13L24 13L24 14L20 14L20 15L17 15L17 13L16 13L16 14L15 14L15 13L13 13L13 14L12 14L12 16L11 16L11 19L12 19L12 20L11 20L11 21L10 21L10 20L9 20L9 19L10 19L10 18L9 18L9 17L8 17L8 16L10 16L10 15L11 15L11 13L12 13L12 12L13 12L13 11L11 11L11 13L9 13L9 15L8 15L8 12L9 12L9 10L8 10L8 12L7 12L7 13L3 13L3 12L1 12L1 13L2 13L2 14L1 14L1 15L2 15L2 16L4 16L4 15L2 15L2 14L5 14L5 15L6 15L6 16L7 16L7 17L6 17L6 18L7 18L7 19L5 19L5 18L4 18L4 19L5 19L5 20L7 20L7 19L8 19L8 20L9 20L9 22L11 22L11 23L13 23L13 22L14 22L14 24L12 24L12 26L11 26L11 28L12 28L12 26L13 26L13 27L14 27L14 26L13 26L13 25L15 25L15 24L16 24L16 23L17 23L17 24L19 24L19 25L20 25L20 27L21 27L21 26L22 26L22 28L24 28L24 27L26 27L26 26L27 26L27 27L28 27L28 25L26 25L26 24L25 24L25 25L26 25L26 26L24 26L24 27L23 27L23 25L20 25L20 24L19 24L19 23L17 23L17 22L20 22L20 20L21 20L21 19L22 19L22 20L25 20L25 19L24 19L24 18L25 18L25 17L24 17L24 18L23 18L23 15L24 15L24 14L25 14L25 13L26 13L26 12L27 12L27 9ZM6 14L6 15L7 15L7 14ZM13 14L13 15L14 15L14 14ZM15 15L15 18L14 18L14 16L12 16L12 17L13 17L13 18L14 18L14 21L16 21L16 20L15 20L15 19L16 19L16 18L17 18L17 21L18 21L18 19L19 19L19 17L18 17L18 18L17 18L17 16L16 16L16 15ZM21 15L21 16L22 16L22 15ZM8 18L8 19L9 19L9 18ZM20 18L20 19L21 19L21 18ZM22 18L22 19L23 19L23 18ZM21 21L21 24L24 24L24 21ZM22 22L22 23L23 23L23 22ZM9 26L9 28L10 28L10 26ZM0 0L0 7L7 7L7 0ZM1 1L1 6L6 6L6 1ZM2 2L2 5L5 5L5 2ZM22 0L22 7L29 7L29 0ZM23 1L23 6L28 6L28 1ZM24 2L24 5L27 5L27 2ZM0 22L0 29L7 29L7 22ZM1 23L1 28L6 28L6 23ZM2 24L2 27L5 27L5 24Z" fill="#000000"/></g></g></svg>
