<?xml version="1.0" encoding="UTF-8"?>
<svg xmlns="http://www.w3.org/2000/svg" version="1.1" width="100" height="100" viewBox="0 0 100 100"><rect x="0" y="0" width="100" height="100" fill="#ffffff"/><g transform="scale(3.448)"><g transform="translate(0,0)"><path fill-rule="evenodd" d="M8 0L8 1L9 1L9 3L10 3L10 4L11 4L11 0ZM13 0L13 1L12 1L12 2L13 2L13 3L12 3L12 4L15 4L15 3L17 3L17 6L16 6L16 7L17 7L17 6L18 6L18 8L17 8L17 9L16 9L16 8L15 8L15 10L14 10L14 9L13 9L13 10L12 10L12 9L10 9L10 7L11 7L11 6L12 6L12 8L14 8L14 7L15 7L15 6L14 6L14 7L13 7L13 5L11 5L11 6L10 6L10 5L9 5L9 6L8 6L8 8L9 8L9 9L7 9L7 8L6 8L6 9L5 9L5 8L3 8L3 9L2 9L2 8L0 8L0 9L2 9L2 10L4 10L4 11L5 11L5 10L6 10L6 11L7 11L7 12L6 12L6 13L7 13L7 12L8 12L8 13L9 13L9 14L8 14L8 15L9 15L9 14L12 14L12 15L11 15L11 17L12 17L12 18L11 18L11 19L8 19L8 18L10 18L10 17L7 17L7 16L6 16L6 15L7 15L7 14L5 14L5 13L4 13L4 14L3 14L3 15L1 15L1 16L2 16L2 17L0 17L0 21L4 21L4 20L5 20L5 21L7 21L7 20L9 20L9 21L8 21L8 22L10 22L10 21L11 21L11 23L10 23L10 24L11 24L11 26L10 26L10 25L9 25L9 24L8 24L8 26L10 26L10 27L11 27L11 26L12 26L12 28L9 28L9 27L8 27L8 29L12 29L12 28L13 28L13 29L17 29L17 26L16 26L16 24L18 24L18 25L19 25L19 26L22 26L22 25L23 25L23 26L24 26L24 27L22 27L22 29L26 29L26 28L27 28L27 27L28 27L28 28L29 28L29 24L28 24L28 21L29 21L29 20L28 20L28 19L29 19L29 18L28 18L28 16L27 16L27 15L29 15L29 12L28 12L28 10L27 10L27 12L28 12L28 13L24 13L24 15L26 15L26 16L27 16L27 17L23 17L23 19L21 19L21 20L20 20L20 22L17 22L17 21L19 21L19 20L17 20L17 19L16 19L16 18L17 18L17 15L18 15L18 18L19 18L19 19L20 19L20 18L21 18L21 17L22 17L22 16L23 16L23 12L25 12L25 10L26 10L26 9L24 9L24 10L23 10L23 11L22 11L22 9L23 9L23 8L22 8L22 9L21 9L21 11L22 11L22 12L19 12L19 11L18 11L18 10L20 10L20 8L19 8L19 5L20 5L20 7L21 7L21 5L20 5L20 4L21 4L21 2L20 2L20 1L21 1L21 0L20 0L20 1L19 1L19 0L18 0L18 1L17 1L17 0L16 0L16 1L17 1L17 2L15 2L15 3L14 3L14 0ZM18 1L18 2L17 2L17 3L18 3L18 5L19 5L19 4L20 4L20 3L19 3L19 1ZM9 6L9 7L10 7L10 6ZM18 8L18 9L17 9L17 10L18 10L18 9L19 9L19 8ZM28 8L28 9L29 9L29 8ZM6 9L6 10L7 10L7 9ZM9 9L9 10L8 10L8 11L9 11L9 12L11 12L11 13L12 13L12 12L13 12L13 13L14 13L14 15L12 15L12 17L13 17L13 19L14 19L14 20L12 20L12 19L11 19L11 21L13 21L13 22L14 22L14 23L13 23L13 24L12 24L12 25L14 25L14 26L15 26L15 25L14 25L14 23L15 23L15 20L16 20L16 21L17 21L17 20L16 20L16 19L14 19L14 17L13 17L13 16L14 16L14 15L15 15L15 16L16 16L16 15L17 15L17 14L18 14L18 15L19 15L19 14L20 14L20 15L21 15L21 16L19 16L19 17L21 17L21 16L22 16L22 15L21 15L21 13L19 13L19 12L17 12L17 11L16 11L16 15L15 15L15 13L14 13L14 10L13 10L13 11L11 11L11 10L10 10L10 9ZM9 10L9 11L10 11L10 10ZM0 11L0 12L2 12L2 13L3 13L3 11ZM18 13L18 14L19 14L19 13ZM4 14L4 15L5 15L5 14ZM26 14L26 15L27 15L27 14ZM3 16L3 17L2 17L2 18L4 18L4 17L5 17L5 16ZM6 17L6 18L5 18L5 20L7 20L7 19L6 19L6 18L7 18L7 17ZM24 18L24 19L23 19L23 20L25 20L25 24L26 24L26 25L24 25L24 26L27 26L27 23L26 23L26 20L25 20L25 18ZM26 18L26 19L27 19L27 18ZM2 19L2 20L4 20L4 19ZM21 21L21 24L24 24L24 21ZM22 22L22 23L23 23L23 22ZM18 23L18 24L19 24L19 23ZM13 27L13 28L14 28L14 27ZM15 27L15 28L16 28L16 27ZM18 27L18 29L21 29L21 28L20 28L20 27ZM25 27L25 28L26 28L26 27ZM0 0L0 7L7 7L7 0ZM1 1L1 6L6 6L6 1ZM2 2L2 5L5 5L5 2ZM22 0L22 7L29 7L29 0ZM23 1L23 6L28 6L28 1ZM24 2L24 5L27 5L27 2ZM0 22L0 29L7 29L7 22ZM1 23L1 28L6 28L6 23ZM2 24L2 27L5 27L5 24Z" fill="#000000"/></g></g></svg>
