<?xml version="1.0" encoding="UTF-8"?>
<svg xmlns="http://www.w3.org/2000/svg" version="1.1" width="100" height="100" viewBox="0 0 100 100"><rect x="0" y="0" width="100" height="100" fill="#ffffff"/><g transform="scale(3.448)"><g transform="translate(0,0)"><path fill-rule="evenodd" d="M8 0L8 1L9 1L9 2L8 2L8 5L9 5L9 6L8 6L8 7L9 7L9 8L8 8L8 9L7 9L7 8L6 8L6 9L4 9L4 8L0 8L0 9L1 9L1 10L0 10L0 11L1 11L1 12L0 12L0 13L1 13L1 12L2 12L2 14L3 14L3 15L4 15L4 14L3 14L3 13L4 13L4 12L3 12L3 10L2 10L2 9L4 9L4 11L5 11L5 10L6 10L6 11L7 11L7 12L6 12L6 13L5 13L5 15L8 15L8 16L6 16L6 17L8 17L8 16L9 16L9 18L10 18L10 16L9 16L9 14L11 14L11 13L14 13L14 12L15 12L15 14L16 14L16 15L15 15L15 16L13 16L13 15L14 15L14 14L12 14L12 15L11 15L11 18L12 18L12 19L10 19L10 20L8 20L8 18L6 18L6 19L7 19L7 20L6 20L6 21L7 21L7 20L8 20L8 22L9 22L9 23L12 23L12 22L14 22L14 23L13 23L13 25L14 25L14 24L15 24L15 26L16 26L16 25L17 25L17 26L18 26L18 27L19 27L19 29L24 29L24 28L25 28L25 29L26 29L26 28L25 28L25 27L27 27L27 29L28 29L28 27L29 27L29 25L28 25L28 23L27 23L27 22L26 22L26 23L25 23L25 19L23 19L23 18L22 18L22 19L21 19L21 17L20 17L20 19L18 19L18 17L17 17L17 16L16 16L16 15L18 15L18 16L20 16L20 13L19 13L19 14L18 14L18 12L17 12L17 11L19 11L19 12L20 12L20 11L19 11L19 10L21 10L21 9L22 9L22 10L23 10L23 11L22 11L22 12L21 12L21 14L22 14L22 15L21 15L21 16L22 16L22 15L23 15L23 14L24 14L24 12L23 12L23 11L24 11L24 10L29 10L29 8L28 8L28 9L27 9L27 8L24 8L24 10L23 10L23 9L22 9L22 8L21 8L21 9L20 9L20 7L21 7L21 5L20 5L20 4L18 4L18 3L21 3L21 2L19 2L19 1L20 1L20 0L17 0L17 1L18 1L18 3L17 3L17 2L15 2L15 5L13 5L13 4L14 4L14 2L12 2L12 0L11 0L11 1L10 1L10 0ZM14 0L14 1L15 1L15 0ZM9 2L9 3L10 3L10 6L9 6L9 7L10 7L10 8L9 8L9 9L8 9L8 10L9 10L9 11L8 11L8 12L7 12L7 13L6 13L6 14L7 14L7 13L8 13L8 14L9 14L9 13L8 13L8 12L10 12L10 13L11 13L11 9L12 9L12 11L14 11L14 9L15 9L15 12L16 12L16 11L17 11L17 10L18 10L18 9L17 9L17 8L15 8L15 7L16 7L16 6L17 6L17 7L18 7L18 8L19 8L19 7L20 7L20 6L19 6L19 5L17 5L17 4L16 4L16 5L15 5L15 7L14 7L14 6L13 6L13 5L12 5L12 2L11 2L11 3L10 3L10 2ZM10 6L10 7L11 7L11 8L12 8L12 9L13 9L13 8L12 8L12 7L13 7L13 6L12 6L12 7L11 7L11 6ZM18 6L18 7L19 7L19 6ZM6 9L6 10L7 10L7 9ZM9 9L9 10L10 10L10 9ZM25 11L25 13L26 13L26 14L25 14L25 15L26 15L26 14L28 14L28 15L27 15L27 16L29 16L29 13L27 13L27 12L28 12L28 11L27 11L27 12L26 12L26 11ZM22 12L22 13L23 13L23 12ZM16 13L16 14L17 14L17 13ZM0 15L0 17L2 17L2 18L3 18L3 17L4 17L4 18L5 18L5 17L4 17L4 16L3 16L3 17L2 17L2 15ZM24 16L24 17L25 17L25 16ZM12 17L12 18L13 18L13 19L12 19L12 20L10 20L10 21L12 21L12 20L13 20L13 21L15 21L15 23L17 23L17 24L18 24L18 23L17 23L17 22L20 22L20 20L21 20L21 19L20 19L20 20L18 20L18 21L17 21L17 19L15 19L15 18L14 18L14 17ZM26 17L26 21L27 21L27 20L28 20L28 22L29 22L29 20L28 20L28 17ZM0 18L0 19L1 19L1 18ZM3 19L3 20L1 20L1 21L3 21L3 20L4 20L4 19ZM14 19L14 20L15 20L15 19ZM21 21L21 24L24 24L24 21ZM22 22L22 23L23 23L23 22ZM19 23L19 27L21 27L21 26L20 26L20 23ZM26 23L26 24L25 24L25 25L26 25L26 26L27 26L27 27L28 27L28 26L27 26L27 25L26 25L26 24L27 24L27 23ZM10 24L10 25L8 25L8 29L10 29L10 28L9 28L9 26L11 26L11 24ZM22 25L22 28L23 28L23 27L25 27L25 26L24 26L24 25ZM13 26L13 27L12 27L12 28L11 28L11 29L15 29L15 28L16 28L16 29L17 29L17 28L16 28L16 27L14 27L14 26ZM13 27L13 28L14 28L14 27ZM0 0L0 7L7 7L7 0ZM1 1L1 6L6 6L6 1ZM2 2L2 5L5 5L5 2ZM22 0L22 7L29 7L29 0ZM23 1L23 6L28 6L28 1ZM24 2L24 5L27 5L27 2ZM0 22L0 29L7 29L7 22ZM1 23L1 28L6 28L6 23ZM2 24L2 27L5 27L5 24Z" fill="#000000"/></g></g></svg>
