<?xml version="1.0" encoding="UTF-8"?>
<svg xmlns="http://www.w3.org/2000/svg" version="1.1" width="100" height="100" viewBox="0 0 100 100"><rect x="0" y="0" width="100" height="100" fill="#ffffff"/><g transform="scale(3.448)"><g transform="translate(0,0)"><path fill-rule="evenodd" d="M9 0L9 1L8 1L8 2L9 2L9 3L8 3L8 4L10 4L10 7L11 7L11 8L6 8L6 9L7 9L7 10L6 10L6 11L4 11L4 9L5 9L5 8L0 8L0 9L2 9L2 11L1 11L1 10L0 10L0 21L1 21L1 18L2 18L2 19L3 19L3 21L8 21L8 23L9 23L9 20L11 20L11 21L10 21L10 22L12 22L12 23L10 23L10 25L11 25L11 26L12 26L12 28L13 28L13 29L14 29L14 28L13 28L13 25L14 25L14 26L15 26L15 29L20 29L20 28L22 28L22 29L23 29L23 28L24 28L24 29L27 29L27 28L28 28L28 26L29 26L29 25L28 25L28 24L26 24L26 25L25 25L25 21L28 21L28 22L27 22L27 23L28 23L28 22L29 22L29 21L28 21L28 20L23 20L23 17L24 17L24 18L26 18L26 19L28 19L28 18L29 18L29 17L28 17L28 16L29 16L29 15L28 15L28 14L29 14L29 13L28 13L28 14L27 14L27 16L26 16L26 17L24 17L24 16L23 16L23 17L22 17L22 14L23 14L23 13L24 13L24 15L25 15L25 13L27 13L27 12L25 12L25 10L26 10L26 11L28 11L28 12L29 12L29 11L28 11L28 10L29 10L29 9L28 9L28 8L27 8L27 9L26 9L26 8L25 8L25 9L24 9L24 8L23 8L23 9L22 9L22 8L21 8L21 4L19 4L19 5L18 5L18 8L17 8L17 6L16 6L16 5L15 5L15 4L18 4L18 3L16 3L16 2L18 2L18 1L20 1L20 3L21 3L21 1L20 1L20 0L17 0L17 1L15 1L15 0L13 0L13 1L11 1L11 2L10 2L10 0ZM13 1L13 2L12 2L12 3L14 3L14 4L13 4L13 7L12 7L12 4L11 4L11 3L10 3L10 4L11 4L11 7L12 7L12 8L11 8L11 9L10 9L10 11L11 11L11 12L10 12L10 13L12 13L12 14L9 14L9 12L8 12L8 14L7 14L7 13L6 13L6 12L7 12L7 11L6 11L6 12L5 12L5 13L6 13L6 14L5 14L5 15L4 15L4 16L7 16L7 17L6 17L6 18L7 18L7 19L5 19L5 18L4 18L4 17L3 17L3 18L4 18L4 19L5 19L5 20L7 20L7 19L8 19L8 18L9 18L9 17L8 17L8 16L9 16L9 15L11 15L11 16L10 16L10 19L12 19L12 20L14 20L14 21L13 21L13 23L12 23L12 24L11 24L11 25L13 25L13 24L14 24L14 25L15 25L15 26L17 26L17 28L18 28L18 26L20 26L20 27L22 27L22 28L23 28L23 27L24 27L24 26L25 26L25 28L27 28L27 27L26 27L26 26L25 26L25 25L24 25L24 26L23 26L23 25L20 25L20 24L19 24L19 25L18 25L18 26L17 26L17 25L15 25L15 22L17 22L17 23L16 23L16 24L18 24L18 22L20 22L20 21L15 21L15 20L16 20L16 19L14 19L14 17L15 17L15 18L17 18L17 17L15 17L15 16L14 16L14 15L13 15L13 16L12 16L12 14L14 14L14 13L15 13L15 14L18 14L18 15L16 15L16 16L18 16L18 15L20 15L20 16L19 16L19 17L20 17L20 16L21 16L21 14L22 14L22 13L23 13L23 12L24 12L24 13L25 13L25 12L24 12L24 9L23 9L23 10L22 10L22 9L21 9L21 8L18 8L18 9L15 9L15 7L16 7L16 6L15 6L15 5L14 5L14 4L15 4L15 3L14 3L14 2L15 2L15 1ZM8 5L8 7L9 7L9 5ZM19 5L19 7L20 7L20 5ZM14 6L14 7L15 7L15 6ZM12 8L12 9L11 9L11 10L12 10L12 11L14 11L14 12L12 12L12 13L14 13L14 12L15 12L15 13L18 13L18 14L21 14L21 13L22 13L22 10L21 10L21 9L18 9L18 10L20 10L20 11L21 11L21 13L18 13L18 12L19 12L19 11L18 11L18 12L16 12L16 10L15 10L15 9L14 9L14 8ZM12 9L12 10L14 10L14 11L15 11L15 10L14 10L14 9ZM8 10L8 11L9 11L9 10ZM2 11L2 14L1 14L1 15L2 15L2 16L1 16L1 17L2 17L2 16L3 16L3 14L4 14L4 13L3 13L3 11ZM6 14L6 15L7 15L7 14ZM13 16L13 17L14 17L14 16ZM7 17L7 18L8 18L8 17ZM11 17L11 18L12 18L12 19L13 19L13 18L12 18L12 17ZM27 17L27 18L28 18L28 17ZM18 18L18 19L17 19L17 20L19 20L19 19L20 19L20 18ZM21 18L21 20L22 20L22 18ZM14 21L14 22L15 22L15 21ZM21 21L21 24L24 24L24 21ZM22 22L22 23L23 23L23 22ZM8 24L8 29L10 29L10 28L11 28L11 27L9 27L9 24ZM27 25L27 26L28 26L28 25ZM22 26L22 27L23 27L23 26ZM0 0L0 7L7 7L7 0ZM1 1L1 6L6 6L6 1ZM2 2L2 5L5 5L5 2ZM22 0L22 7L29 7L29 0ZM23 1L23 6L28 6L28 1ZM24 2L24 5L27 5L27 2ZM0 22L0 29L7 29L7 22ZM1 23L1 28L6 28L6 23ZM2 24L2 27L5 27L5 24Z" fill="#000000"/></g></g></svg>
