<?xml version="1.0" encoding="UTF-8"?>
<svg xmlns="http://www.w3.org/2000/svg" version="1.1" width="100" height="100" viewBox="0 0 100 100"><rect x="0" y="0" width="100" height="100" fill="#ffffff"/><g transform="scale(3.448)"><g transform="translate(0,0)"><path fill-rule="evenodd" d="M9 0L9 1L8 1L8 2L9 2L9 3L8 3L8 4L10 4L10 2L11 2L11 1L12 1L12 2L13 2L13 1L12 1L12 0L11 0L11 1L10 1L10 0ZM14 0L14 2L15 2L15 4L14 4L14 3L12 3L12 4L11 4L11 5L10 5L10 7L11 7L11 5L12 5L12 8L13 8L13 9L14 9L14 10L15 10L15 13L14 13L14 12L12 12L12 11L13 11L13 10L12 10L12 9L11 9L11 8L6 8L6 9L7 9L7 10L5 10L5 8L0 8L0 9L1 9L1 10L0 10L0 12L1 12L1 13L0 13L0 15L1 15L1 16L0 16L0 21L1 21L1 18L2 18L2 19L5 19L5 21L8 21L8 23L9 23L9 24L8 24L8 29L9 29L9 28L10 28L10 27L9 27L9 25L10 25L10 26L12 26L12 28L13 28L13 29L14 29L14 28L13 28L13 27L14 27L14 26L15 26L15 29L20 29L20 28L22 28L22 29L23 29L23 28L24 28L24 29L27 29L27 28L28 28L28 26L29 26L29 25L28 25L28 24L29 24L29 23L28 23L28 22L29 22L29 21L28 21L28 20L23 20L23 17L24 17L24 18L26 18L26 19L28 19L28 18L29 18L29 17L28 17L28 16L29 16L29 15L28 15L28 14L29 14L29 13L28 13L28 14L27 14L27 16L26 16L26 17L24 17L24 16L23 16L23 17L22 17L22 14L23 14L23 13L24 13L24 15L25 15L25 13L27 13L27 12L25 12L25 10L26 10L26 11L28 11L28 12L29 12L29 11L28 11L28 10L29 10L29 9L28 9L28 8L27 8L27 9L26 9L26 8L25 8L25 9L24 9L24 8L23 8L23 9L22 9L22 8L21 8L21 4L19 4L19 5L18 5L18 8L17 8L17 6L16 6L16 5L15 5L15 4L18 4L18 3L16 3L16 1L15 1L15 0ZM17 0L17 2L18 2L18 1L20 1L20 3L21 3L21 1L20 1L20 0ZM9 1L9 2L10 2L10 1ZM12 4L12 5L14 5L14 6L13 6L13 8L14 8L14 9L15 9L15 10L16 10L16 12L18 12L18 13L15 13L15 14L14 14L14 13L13 13L13 14L11 14L11 17L13 17L13 18L14 18L14 17L15 17L15 18L17 18L17 17L15 17L15 14L18 14L18 15L16 15L16 16L18 16L18 15L20 15L20 16L19 16L19 17L20 17L20 16L21 16L21 14L22 14L22 13L23 13L23 12L24 12L24 13L25 13L25 12L24 12L24 9L23 9L23 10L22 10L22 9L21 9L21 8L18 8L18 9L15 9L15 8L16 8L16 6L15 6L15 5L14 5L14 4ZM8 5L8 7L9 7L9 5ZM19 5L19 7L20 7L20 5ZM14 6L14 8L15 8L15 6ZM8 9L8 10L9 10L9 9ZM10 9L10 11L12 11L12 10L11 10L11 9ZM18 9L18 10L20 10L20 11L21 11L21 13L18 13L18 14L21 14L21 13L22 13L22 10L21 10L21 9ZM3 10L3 11L2 11L2 14L4 14L4 13L5 13L5 14L7 14L7 15L6 15L6 16L7 16L7 17L6 17L6 18L5 18L5 17L3 17L3 18L5 18L5 19L6 19L6 20L8 20L8 21L9 21L9 23L10 23L10 24L11 24L11 25L13 25L13 26L14 26L14 25L15 25L15 26L16 26L16 28L18 28L18 26L20 26L20 27L22 27L22 28L23 28L23 27L24 27L24 26L25 26L25 28L27 28L27 27L26 27L26 26L25 26L25 25L26 25L26 24L28 24L28 23L27 23L27 22L28 22L28 21L25 21L25 25L24 25L24 26L23 26L23 25L20 25L20 24L19 24L19 25L18 25L18 26L17 26L17 25L15 25L15 24L18 24L18 23L19 23L19 22L20 22L20 21L15 21L15 19L13 19L13 20L12 20L12 18L10 18L10 17L8 17L8 14L9 14L9 15L10 15L10 13L11 13L11 12L10 12L10 13L8 13L8 12L7 12L7 11L5 11L5 12L4 12L4 10ZM18 11L18 12L19 12L19 11ZM3 12L3 13L4 13L4 12ZM5 12L5 13L7 13L7 14L8 14L8 13L7 13L7 12ZM12 15L12 16L13 16L13 17L14 17L14 16L13 16L13 15ZM27 17L27 18L28 18L28 17ZM6 18L6 19L7 19L7 18ZM8 18L8 19L9 19L9 20L10 20L10 21L11 21L11 22L12 22L12 24L13 24L13 25L14 25L14 24L13 24L13 22L15 22L15 23L16 23L16 22L15 22L15 21L14 21L14 20L13 20L13 21L11 21L11 20L10 20L10 19L9 19L9 18ZM18 18L18 19L17 19L17 20L19 20L19 19L20 19L20 18ZM21 18L21 20L22 20L22 18ZM3 20L3 21L4 21L4 20ZM21 21L21 24L24 24L24 21ZM22 22L22 23L23 23L23 22ZM27 25L27 26L28 26L28 25ZM22 26L22 27L23 27L23 26ZM0 0L0 7L7 7L7 0ZM1 1L1 6L6 6L6 1ZM2 2L2 5L5 5L5 2ZM22 0L22 7L29 7L29 0ZM23 1L23 6L28 6L28 1ZM24 2L24 5L27 5L27 2ZM0 22L0 29L7 29L7 22ZM1 23L1 28L6 28L6 23ZM2 24L2 27L5 27L5 24Z" fill="#000000"/></g></g></svg>
