<?xml version="1.0" encoding="UTF-8"?>
<svg xmlns="http://www.w3.org/2000/svg" version="1.1" width="100" height="100" viewBox="0 0 100 100"><rect x="0" y="0" width="100" height="100" fill="#ffffff"/><g transform="scale(3.448)"><g transform="translate(0,0)"><path fill-rule="evenodd" d="M8 0L8 1L9 1L9 3L10 3L10 4L11 4L11 0ZM13 0L13 1L12 1L12 2L13 2L13 3L12 3L12 4L15 4L15 3L17 3L17 5L16 5L16 7L15 7L15 6L14 6L14 7L13 7L13 5L11 5L11 6L10 6L10 5L9 5L9 6L8 6L8 8L9 8L9 9L10 9L10 10L9 10L9 11L10 11L10 10L11 10L11 11L14 11L14 13L13 13L13 12L12 12L12 13L11 13L11 12L8 12L8 10L6 10L6 9L7 9L7 8L6 8L6 9L5 9L5 8L3 8L3 10L2 10L2 11L1 11L1 12L2 12L2 11L4 11L4 12L5 12L5 14L6 14L6 15L5 15L5 16L3 16L3 17L7 17L7 18L5 18L5 19L4 19L4 18L2 18L2 15L4 15L4 13L2 13L2 15L1 15L1 14L0 14L0 16L1 16L1 17L0 17L0 21L2 21L2 20L3 20L3 21L4 21L4 20L5 20L5 19L7 19L7 20L6 20L6 21L8 21L8 22L9 22L9 21L11 21L11 23L9 23L9 24L8 24L8 26L10 26L10 27L11 27L11 26L12 26L12 28L10 28L10 29L12 29L12 28L13 28L13 29L17 29L17 26L16 26L16 24L14 24L14 25L12 25L12 24L13 24L13 23L14 23L14 22L13 22L13 21L11 21L11 20L8 20L8 19L12 19L12 20L15 20L15 23L17 23L17 24L18 24L18 25L19 25L19 26L18 26L18 29L21 29L21 28L20 28L20 27L19 27L19 26L22 26L22 25L23 25L23 26L24 26L24 27L22 27L22 29L26 29L26 28L27 28L27 27L28 27L28 28L29 28L29 24L28 24L28 21L29 21L29 20L28 20L28 19L29 19L29 18L28 18L28 16L27 16L27 15L29 15L29 12L28 12L28 10L27 10L27 12L28 12L28 13L24 13L24 15L26 15L26 16L27 16L27 17L23 17L23 19L21 19L21 20L20 20L20 22L19 22L19 24L18 24L18 22L17 22L17 21L19 21L19 20L17 20L17 19L16 19L16 18L17 18L17 15L18 15L18 18L19 18L19 19L20 19L20 18L21 18L21 17L22 17L22 16L23 16L23 12L25 12L25 10L26 10L26 9L24 9L24 10L23 10L23 11L22 11L22 9L23 9L23 8L22 8L22 9L21 9L21 11L22 11L22 12L19 12L19 11L18 11L18 10L20 10L20 8L19 8L19 5L20 5L20 7L21 7L21 5L20 5L20 4L21 4L21 2L20 2L20 1L21 1L21 0L20 0L20 1L19 1L19 0L18 0L18 1L17 1L17 0L16 0L16 1L17 1L17 2L15 2L15 3L14 3L14 0ZM18 1L18 2L17 2L17 3L18 3L18 5L19 5L19 4L20 4L20 3L19 3L19 1ZM9 6L9 7L10 7L10 9L12 9L12 10L15 10L15 8L12 8L12 6L11 6L11 7L10 7L10 6ZM17 6L17 8L16 8L16 9L17 9L17 10L16 10L16 11L15 11L15 12L16 12L16 15L15 15L15 13L14 13L14 15L13 15L13 14L11 14L11 16L12 16L12 17L11 17L11 18L12 18L12 17L13 17L13 19L15 19L15 20L16 20L16 21L17 21L17 20L16 20L16 19L15 19L15 18L14 18L14 17L13 17L13 16L14 16L14 15L15 15L15 16L16 16L16 15L17 15L17 14L18 14L18 15L19 15L19 14L20 14L20 15L21 15L21 16L19 16L19 17L21 17L21 16L22 16L22 15L21 15L21 13L19 13L19 12L16 12L16 11L17 11L17 10L18 10L18 9L19 9L19 8L18 8L18 6ZM0 8L0 9L2 9L2 8ZM17 8L17 9L18 9L18 8ZM28 8L28 9L29 9L29 8ZM4 9L4 10L5 10L5 9ZM5 11L5 12L7 12L7 13L6 13L6 14L8 14L8 15L9 15L9 14L10 14L10 13L9 13L9 14L8 14L8 12L7 12L7 11ZM18 13L18 14L19 14L19 13ZM26 14L26 15L27 15L27 14ZM6 15L6 16L7 16L7 17L8 17L8 16L7 16L7 15ZM12 15L12 16L13 16L13 15ZM24 18L24 19L23 19L23 20L25 20L25 24L26 24L26 25L24 25L24 26L27 26L27 23L26 23L26 20L25 20L25 18ZM26 18L26 19L27 19L27 18ZM21 21L21 24L24 24L24 21ZM22 22L22 23L23 23L23 22ZM9 24L9 25L10 25L10 26L11 26L11 25L10 25L10 24ZM14 25L14 26L13 26L13 28L16 28L16 27L15 27L15 25ZM8 27L8 29L9 29L9 27ZM25 27L25 28L26 28L26 27ZM0 0L0 7L7 7L7 0ZM1 1L1 6L6 6L6 1ZM2 2L2 5L5 5L5 2ZM22 0L22 7L29 7L29 0ZM23 1L23 6L28 6L28 1ZM24 2L24 5L27 5L27 2ZM0 22L0 29L7 29L7 22ZM1 23L1 28L6 28L6 23ZM2 24L2 27L5 27L5 24Z" fill="#000000"/></g></g></svg>
