<?xml version="1.0" encoding="UTF-8"?>
<svg xmlns="http://www.w3.org/2000/svg" version="1.1" width="100" height="100" viewBox="0 0 100 100"><rect x="0" y="0" width="100" height="100" fill="#ffffff"/><g transform="scale(3.448)"><g transform="translate(0,0)"><path fill-rule="evenodd" d="M9 0L9 3L8 3L8 5L9 5L9 6L8 6L8 7L9 7L9 9L8 9L8 8L5 8L5 9L7 9L7 10L5 10L5 11L7 11L7 12L4 12L4 13L7 13L7 14L6 14L6 15L5 15L5 16L6 16L6 17L4 17L4 15L3 15L3 14L2 14L2 13L3 13L3 11L4 11L4 10L3 10L3 9L2 9L2 8L0 8L0 9L1 9L1 10L0 10L0 11L2 11L2 13L1 13L1 12L0 12L0 13L1 13L1 14L2 14L2 15L3 15L3 16L1 16L1 15L0 15L0 21L1 21L1 19L2 19L2 18L3 18L3 20L2 20L2 21L3 21L3 20L6 20L6 21L8 21L8 24L9 24L9 23L10 23L10 22L9 22L9 21L8 21L8 20L6 20L6 19L10 19L10 20L11 20L11 19L12 19L12 20L13 20L13 21L11 21L11 22L12 22L12 24L10 24L10 25L9 25L9 26L10 26L10 29L11 29L11 26L12 26L12 28L13 28L13 29L14 29L14 28L13 28L13 25L12 25L12 24L13 24L13 22L14 22L14 20L13 20L13 19L16 19L16 17L17 17L17 18L19 18L19 20L15 20L15 23L14 23L14 26L15 26L15 27L16 27L16 28L15 28L15 29L20 29L20 26L17 26L17 27L16 27L16 24L17 24L17 23L16 23L16 22L17 22L17 21L20 21L20 22L18 22L18 23L19 23L19 24L18 24L18 25L21 25L21 26L22 26L22 29L23 29L23 28L24 28L24 29L27 29L27 27L28 27L28 28L29 28L29 27L28 27L28 26L29 26L29 23L28 23L28 19L29 19L29 17L28 17L28 16L27 16L27 15L28 15L28 14L29 14L29 11L28 11L28 10L26 10L26 8L24 8L24 12L25 12L25 10L26 10L26 11L27 11L27 12L28 12L28 13L27 13L27 15L26 15L26 17L24 17L24 16L23 16L23 15L22 15L22 14L23 14L23 12L19 12L19 11L18 11L18 12L19 12L19 13L18 13L18 14L17 14L17 15L16 15L16 12L15 12L15 11L16 11L16 10L17 10L17 9L18 9L18 10L20 10L20 11L22 11L22 9L21 9L21 10L20 10L20 9L18 9L18 8L21 8L21 0L20 0L20 4L19 4L19 5L18 5L18 8L17 8L17 5L16 5L16 7L15 7L15 3L12 3L12 4L11 4L11 3L10 3L10 2L11 2L11 0ZM13 0L13 1L12 1L12 2L13 2L13 1L14 1L14 2L15 2L15 1L14 1L14 0ZM16 0L16 1L17 1L17 2L18 2L18 1L19 1L19 0L18 0L18 1L17 1L17 0ZM9 3L9 5L11 5L11 7L10 7L10 6L9 6L9 7L10 7L10 8L11 8L11 9L12 9L12 10L10 10L10 9L9 9L9 10L10 10L10 11L8 11L8 10L7 10L7 11L8 11L8 14L9 14L9 15L10 15L10 16L9 16L9 17L8 17L8 16L7 16L7 15L6 15L6 16L7 16L7 17L6 17L6 18L4 18L4 17L3 17L3 18L4 18L4 19L6 19L6 18L7 18L7 17L8 17L8 18L9 18L9 17L10 17L10 16L11 16L11 17L13 17L13 16L14 16L14 17L16 17L16 15L15 15L15 14L14 14L14 11L15 11L15 8L14 8L14 4L12 4L12 5L11 5L11 4L10 4L10 3ZM17 3L17 4L18 4L18 3ZM12 5L12 8L13 8L13 9L14 9L14 8L13 8L13 5ZM19 5L19 7L20 7L20 5ZM2 10L2 11L3 11L3 10ZM12 10L12 11L10 11L10 12L9 12L9 14L10 14L10 15L11 15L11 16L13 16L13 15L11 15L11 14L13 14L13 12L12 12L12 11L13 11L13 10ZM11 12L11 13L12 13L12 12ZM24 13L24 15L25 15L25 13ZM18 14L18 15L17 15L17 16L18 16L18 15L21 15L21 16L22 16L22 17L21 17L21 18L20 18L20 19L23 19L23 20L27 20L27 18L26 18L26 19L25 19L25 18L24 18L24 17L23 17L23 16L22 16L22 15L21 15L21 14ZM14 15L14 16L15 16L15 15ZM19 16L19 17L20 17L20 16ZM22 17L22 18L23 18L23 19L24 19L24 18L23 18L23 17ZM10 18L10 19L11 19L11 18ZM21 21L21 24L24 24L24 21ZM25 21L25 24L26 24L26 25L27 25L27 22L26 22L26 21ZM22 22L22 23L23 23L23 22ZM15 23L15 24L16 24L16 23ZM10 25L10 26L11 26L11 25ZM22 25L22 26L23 26L23 27L24 27L24 26L25 26L25 28L26 28L26 26L25 26L25 25L24 25L24 26L23 26L23 25ZM8 27L8 29L9 29L9 27ZM17 27L17 28L18 28L18 27ZM0 0L0 7L7 7L7 0ZM1 1L1 6L6 6L6 1ZM2 2L2 5L5 5L5 2ZM22 0L22 7L29 7L29 0ZM23 1L23 6L28 6L28 1ZM24 2L24 5L27 5L27 2ZM0 22L0 29L7 29L7 22ZM1 23L1 28L6 28L6 23ZM2 24L2 27L5 27L5 24Z" fill="#000000"/></g></g></svg>
