<?xml version="1.0" encoding="UTF-8"?>
<svg xmlns="http://www.w3.org/2000/svg" version="1.1" width="100" height="100" viewBox="0 0 100 100"><rect x="0" y="0" width="100" height="100" fill="#ffffff"/><g transform="scale(3.448)"><g transform="translate(0,0)"><path fill-rule="evenodd" d="M9 0L9 1L8 1L8 2L9 2L9 3L8 3L8 4L10 4L10 2L11 2L11 1L12 1L12 2L13 2L13 1L12 1L12 0L11 0L11 1L10 1L10 0ZM14 0L14 2L15 2L15 4L14 4L14 3L12 3L12 4L11 4L11 5L10 5L10 7L11 7L11 5L12 5L12 8L13 8L13 10L12 10L12 9L11 9L11 8L6 8L6 9L7 9L7 10L6 10L6 11L5 11L5 8L0 8L0 9L1 9L1 10L0 10L0 11L1 11L1 12L0 12L0 13L3 13L3 15L2 15L2 16L1 16L1 14L0 14L0 16L1 16L1 17L0 17L0 21L1 21L1 17L2 17L2 18L3 18L3 17L5 17L5 19L7 19L7 20L6 20L6 21L8 21L8 23L9 23L9 24L8 24L8 29L11 29L11 28L9 28L9 24L10 24L10 25L11 25L11 26L12 26L12 28L13 28L13 29L14 29L14 28L13 28L13 25L14 25L14 27L15 27L15 29L20 29L20 28L22 28L22 29L23 29L23 28L24 28L24 29L27 29L27 28L28 28L28 26L29 26L29 25L28 25L28 24L29 24L29 23L28 23L28 22L29 22L29 21L28 21L28 20L23 20L23 17L24 17L24 18L26 18L26 19L28 19L28 18L29 18L29 17L28 17L28 16L29 16L29 15L28 15L28 14L29 14L29 13L28 13L28 14L27 14L27 16L26 16L26 17L24 17L24 16L23 16L23 17L22 17L22 14L23 14L23 13L24 13L24 15L25 15L25 13L27 13L27 12L25 12L25 10L26 10L26 11L28 11L28 12L29 12L29 11L28 11L28 10L29 10L29 9L28 9L28 8L27 8L27 9L26 9L26 8L25 8L25 9L24 9L24 8L23 8L23 9L22 9L22 8L21 8L21 4L19 4L19 5L18 5L18 8L16 8L16 7L17 7L17 5L15 5L15 4L18 4L18 3L16 3L16 1L15 1L15 0ZM17 0L17 2L18 2L18 1L20 1L20 3L21 3L21 1L20 1L20 0ZM9 1L9 2L10 2L10 1ZM12 4L12 5L13 5L13 8L14 8L14 9L15 9L15 10L13 10L13 11L12 11L12 10L11 10L11 9L10 9L10 11L12 11L12 12L14 12L14 13L13 13L13 15L12 15L12 14L11 14L11 15L12 15L12 16L9 16L9 15L10 15L10 13L11 13L11 12L10 12L10 13L9 13L9 11L8 11L8 14L7 14L7 13L6 13L6 12L7 12L7 11L6 11L6 12L5 12L5 11L4 11L4 10L3 10L3 9L2 9L2 10L3 10L3 11L2 11L2 12L3 12L3 13L6 13L6 14L7 14L7 15L5 15L5 14L4 14L4 15L3 15L3 16L5 16L5 17L6 17L6 18L7 18L7 19L8 19L8 17L10 17L10 19L9 19L9 20L8 20L8 21L9 21L9 20L10 20L10 23L11 23L11 25L13 25L13 24L14 24L14 25L15 25L15 26L17 26L17 27L16 27L16 28L18 28L18 27L19 27L19 26L20 26L20 27L22 27L22 28L23 28L23 27L24 27L24 26L25 26L25 28L27 28L27 27L26 27L26 26L25 26L25 25L26 25L26 24L28 24L28 23L27 23L27 22L28 22L28 21L25 21L25 25L24 25L24 26L23 26L23 25L20 25L20 24L19 24L19 25L15 25L15 24L14 24L14 23L13 23L13 24L12 24L12 22L11 22L11 21L13 21L13 22L14 22L14 21L15 21L15 22L18 22L18 23L16 23L16 24L18 24L18 23L19 23L19 22L20 22L20 21L15 21L15 20L14 20L14 19L15 19L15 18L17 18L17 17L15 17L15 14L18 14L18 15L16 15L16 16L18 16L18 15L20 15L20 16L19 16L19 17L20 17L20 16L21 16L21 14L22 14L22 13L23 13L23 12L24 12L24 13L25 13L25 12L24 12L24 9L23 9L23 10L22 10L22 9L21 9L21 8L18 8L18 9L15 9L15 8L14 8L14 6L15 6L15 7L16 7L16 6L15 6L15 5L14 5L14 4ZM8 5L8 7L9 7L9 5ZM19 5L19 7L20 7L20 5ZM8 9L8 10L9 10L9 9ZM18 9L18 10L20 10L20 11L21 11L21 13L18 13L18 12L19 12L19 11L18 11L18 12L17 12L17 10L15 10L15 11L14 11L14 12L15 12L15 13L14 13L14 14L15 14L15 13L18 13L18 14L21 14L21 13L22 13L22 10L21 10L21 9ZM15 11L15 12L16 12L16 11ZM8 14L8 15L7 15L7 16L6 16L6 17L7 17L7 16L8 16L8 15L9 15L9 14ZM13 16L13 17L11 17L11 18L12 18L12 20L13 20L13 21L14 21L14 20L13 20L13 19L14 19L14 18L15 18L15 17L14 17L14 16ZM13 17L13 18L14 18L14 17ZM27 17L27 18L28 18L28 17ZM18 18L18 19L17 19L17 20L19 20L19 19L20 19L20 18ZM21 18L21 20L22 20L22 18ZM3 20L3 21L5 21L5 20ZM21 21L21 24L24 24L24 21ZM22 22L22 23L23 23L23 22ZM27 25L27 26L28 26L28 25ZM22 26L22 27L23 27L23 26ZM0 0L0 7L7 7L7 0ZM1 1L1 6L6 6L6 1ZM2 2L2 5L5 5L5 2ZM22 0L22 7L29 7L29 0ZM23 1L23 6L28 6L28 1ZM24 2L24 5L27 5L27 2ZM0 22L0 29L7 29L7 22ZM1 23L1 28L6 28L6 23ZM2 24L2 27L5 27L5 24Z" fill="#000000"/></g></g></svg>
