<?xml version="1.0" encoding="UTF-8"?>
<svg xmlns="http://www.w3.org/2000/svg" version="1.1" width="100" height="100" viewBox="0 0 100 100"><rect x="0" y="0" width="100" height="100" fill="#ffffff"/><g transform="scale(3.448)"><g transform="translate(0,0)"><path fill-rule="evenodd" d="M9 0L9 3L8 3L8 5L9 5L9 6L8 6L8 7L9 7L9 9L10 9L10 10L8 10L8 8L5 8L5 9L2 9L2 8L0 8L0 9L2 9L2 11L1 11L1 12L0 12L0 13L2 13L2 12L4 12L4 13L3 13L3 14L5 14L5 15L4 15L4 16L3 16L3 15L1 15L1 14L0 14L0 15L1 15L1 17L0 17L0 21L1 21L1 19L2 19L2 20L3 20L3 21L4 21L4 19L5 19L5 18L3 18L3 17L8 17L8 18L9 18L9 17L10 17L10 18L11 18L11 19L9 19L9 20L8 20L8 19L7 19L7 18L6 18L6 19L7 19L7 20L6 20L6 21L8 21L8 24L9 24L9 23L11 23L11 22L12 22L12 24L10 24L10 25L9 25L9 26L12 26L12 28L13 28L13 29L14 29L14 28L15 28L15 29L20 29L20 26L18 26L18 25L21 25L21 26L22 26L22 29L23 29L23 28L24 28L24 29L27 29L27 27L28 27L28 28L29 28L29 27L28 27L28 26L29 26L29 23L28 23L28 19L29 19L29 17L28 17L28 16L27 16L27 15L28 15L28 14L29 14L29 11L28 11L28 10L26 10L26 8L24 8L24 12L25 12L25 10L26 10L26 11L27 11L27 12L28 12L28 13L27 13L27 15L26 15L26 17L24 17L24 16L23 16L23 15L22 15L22 14L23 14L23 12L19 12L19 11L18 11L18 12L19 12L19 13L18 13L18 14L16 14L16 12L17 12L17 9L18 9L18 10L20 10L20 11L22 11L22 9L21 9L21 10L20 10L20 9L18 9L18 8L21 8L21 0L20 0L20 4L19 4L19 5L18 5L18 8L15 8L15 6L14 6L14 8L13 8L13 5L12 5L12 4L14 4L14 5L15 5L15 3L16 3L16 2L15 2L15 1L14 1L14 0L13 0L13 1L12 1L12 2L13 2L13 1L14 1L14 2L15 2L15 3L12 3L12 4L11 4L11 3L10 3L10 2L11 2L11 0ZM16 0L16 1L17 1L17 2L18 2L18 1L19 1L19 0L18 0L18 1L17 1L17 0ZM9 3L9 5L11 5L11 7L10 7L10 6L9 6L9 7L10 7L10 8L11 8L11 9L12 9L12 10L10 10L10 11L9 11L9 12L10 12L10 11L12 11L12 12L11 12L11 13L12 13L12 12L13 12L13 15L12 15L12 14L11 14L11 15L10 15L10 14L9 14L9 13L8 13L8 14L7 14L7 13L6 13L6 12L8 12L8 11L4 11L4 10L3 10L3 11L4 11L4 12L5 12L5 14L7 14L7 15L5 15L5 16L8 16L8 17L9 17L9 16L8 16L8 15L10 15L10 17L13 17L13 20L12 20L12 19L11 19L11 21L10 21L10 20L9 20L9 21L10 21L10 22L11 22L11 21L13 21L13 22L15 22L15 20L16 20L16 19L17 19L17 20L19 20L19 18L17 18L17 17L16 17L16 19L15 19L15 20L14 20L14 17L15 17L15 16L16 16L16 15L15 15L15 14L14 14L14 11L15 11L15 8L14 8L14 10L13 10L13 8L12 8L12 5L11 5L11 4L10 4L10 3ZM17 3L17 4L18 4L18 3ZM16 5L16 7L17 7L17 5ZM19 5L19 7L20 7L20 5ZM5 9L5 10L7 10L7 9ZM12 10L12 11L13 11L13 10ZM24 13L24 15L25 15L25 13ZM18 14L18 15L17 15L17 16L18 16L18 15L21 15L21 16L22 16L22 17L21 17L21 18L20 18L20 19L23 19L23 20L27 20L27 18L26 18L26 19L25 19L25 18L24 18L24 17L23 17L23 16L22 16L22 15L21 15L21 14ZM11 15L11 16L12 16L12 15ZM14 15L14 16L13 16L13 17L14 17L14 16L15 16L15 15ZM2 16L2 17L3 17L3 16ZM19 16L19 17L20 17L20 16ZM22 17L22 18L23 18L23 19L24 19L24 18L23 18L23 17ZM13 20L13 21L14 21L14 20ZM17 21L17 23L15 23L15 24L16 24L16 27L15 27L15 28L16 28L16 27L17 27L17 28L19 28L19 27L18 27L18 26L17 26L17 25L18 25L18 23L19 23L19 22L20 22L20 21ZM21 21L21 24L24 24L24 21ZM25 21L25 24L26 24L26 25L27 25L27 22L26 22L26 21ZM22 22L22 23L23 23L23 22ZM13 23L13 24L12 24L12 25L13 25L13 28L14 28L14 23ZM22 25L22 26L23 26L23 27L24 27L24 26L25 26L25 28L26 28L26 26L25 26L25 25L24 25L24 26L23 26L23 25ZM8 27L8 29L9 29L9 27ZM0 0L0 7L7 7L7 0ZM1 1L1 6L6 6L6 1ZM2 2L2 5L5 5L5 2ZM22 0L22 7L29 7L29 0ZM23 1L23 6L28 6L28 1ZM24 2L24 5L27 5L27 2ZM0 22L0 29L7 29L7 22ZM1 23L1 28L6 28L6 23ZM2 24L2 27L5 27L5 24Z" fill="#000000"/></g></g></svg>
